<svg width="27" height="32" viewBox="0 0 27 32" fill="none" xmlns="http://www.w3.org/2000/svg">
<path d="M6 31.2C7.55 31.2 8.81875 30.8125 9.80625 30.0375C10.7937 29.2625 11.55 28.125 12.075 26.625C12.5 25.375 12.9062 24.5 13.2937 24C13.6812 23.5 14.575 22.7 15.975 21.6C17.525 20.35 18.75 18.9375 19.65 17.3625C20.55 15.7875 21 13.9 21 11.7C21 8.725 19.9938 6.23125 17.9813 4.21875C15.9688 2.20625 13.475 1.2 10.5 1.2C7.525 1.2 5.03125 2.20625 3.01875 4.21875C1.00625 6.23125 0 8.725 0 11.7H3C3 9.575 3.71875 7.79375 5.15625 6.35625C6.59375 4.91875 8.375 4.2 10.5 4.2C12.625 4.2 14.4062 4.91875 15.8438 6.35625C17.2812 7.79375 18 9.575 18 11.7C18 13.4 17.6625 14.85 16.9875 16.05C16.3125 17.25 15.35 18.325 14.1 19.275C12.8 20.225 11.7875 21.15 11.0625 22.05C10.3375 22.95 9.8 23.925 9.45 24.975C9.1 26.075 8.68125 26.8875 8.19375 27.4125C7.70625 27.9375 6.975 28.2 6 28.2C5.175 28.2 4.46875 27.9062 3.88125 27.3188C3.29375 26.7313 3 26.025 3 25.2H0C0 26.85 0.5875 28.2625 1.7625 29.4375C2.9375 30.6125 4.35 31.2 6 31.2ZM22.2 23.325C23.675 21.825 24.8438 20.0812 25.7062 18.0938C26.5687 16.1063 27 13.975 27 11.7C27 9.4 26.5687 7.25 25.7062 5.25C24.8438 3.25 23.675 1.5 22.2 0L20.025 2.1C21.275 3.35 22.25 4.79375 22.95 6.43125C23.65 8.06875 24 9.825 24 11.7C24 13.55 23.65 15.2875 22.95 16.9125C22.25 18.5375 21.275 19.975 20.025 21.225L22.2 23.325ZM10.5 15.45C11.55 15.45 12.4375 15.0813 13.1625 14.3438C13.8875 13.6062 14.25 12.725 14.25 11.7C14.25 10.65 13.8875 9.7625 13.1625 9.0375C12.4375 8.3125 11.55 7.95 10.5 7.95C9.45 7.95 8.5625 8.3125 7.8375 9.0375C7.1125 9.7625 6.75 10.65 6.75 11.7C6.75 12.725 7.1125 13.6062 7.8375 14.3438C8.5625 15.0813 9.45 15.45 10.5 15.45Z" fill="#00694C"/>
</svg>
