<svg width="36" height="33" viewBox="0 0 36 33" fill="none" xmlns="http://www.w3.org/2000/svg">
<path d="M13.125 33C11.975 33 10.9438 32.7 10.0312 32.1C9.11875 31.5 8.4125 30.675 7.9125 29.625C7.5125 30.15 7.00625 30.5562 6.39375 30.8438C5.78125 31.1313 5.15 31.275 4.5 31.275C3.225 31.275 2.15625 30.8375 1.29375 29.9625C0.43125 29.0875 0 28.025 0 26.775C0 25.7 0.35 24.7312 1.05 23.8687C1.75 23.0063 2.6375 22.5125 3.7125 22.3875C3.3625 21.8875 3.09375 21.3563 2.90625 20.7938C2.71875 20.2313 2.625 19.6375 2.625 19.0125C2.625 18.0125 2.88125 17.075 3.39375 16.2C3.90625 15.325 4.625 14.6125 5.55 14.0625C5.675 14.5125 5.84375 14.9938 6.05625 15.5063C6.26875 16.0188 6.5125 16.4625 6.7875 16.8375C6.4375 17.1125 6.1625 17.4437 5.9625 17.8312C5.7625 18.2188 5.6625 18.625 5.6625 19.05C5.6625 20.45 6.2375 21.3125 7.3875 21.6375C8.5375 21.9625 9.625 22.225 10.65 22.425L11.3625 23.625C11.0875 24.425 10.85 25.1063 10.65 25.6688C10.45 26.2313 10.35 26.7375 10.35 27.1875C10.35 27.9375 10.6187 28.5938 11.1562 29.1562C11.6938 29.7188 12.35 30 13.125 30C14.075 30 14.8625 29.575 15.4875 28.725C16.1125 27.875 16.625 26.875 17.025 25.725C17.425 24.575 17.7313 23.4125 17.9438 22.2375C18.1562 21.0625 18.325 20.1625 18.45 19.5375L21.375 20.325C21.15 21.45 20.875 22.7375 20.55 24.1875C20.225 25.6375 19.7687 27.0187 19.1812 28.3312C18.5938 29.6437 17.8188 30.75 16.8563 31.65C15.8938 32.55 14.65 33 13.125 33ZM4.5 28.275C4.925 28.275 5.28125 28.1313 5.56875 27.8438C5.85625 27.5562 6 27.2 6 26.775C6 26.35 5.85625 25.9937 5.56875 25.7062C5.28125 25.4187 4.925 25.275 4.5 25.275C4.075 25.275 3.71875 25.4187 3.43125 25.7062C3.14375 25.9937 3 26.35 3 26.775C3 27.2 3.14375 27.5562 3.43125 27.8438C3.71875 28.1313 4.075 28.275 4.5 28.275ZM15.15 22.35C14 21.325 12.9563 20.3688 12.0188 19.4813C11.0813 18.5938 10.275 17.7312 9.6 16.8937C8.925 16.0562 8.40625 15.2188 8.04375 14.3813C7.68125 13.5438 7.5 12.675 7.5 11.775C7.5 10.15 8.05625 8.78125 9.16875 7.66875C10.2812 6.55625 11.65 6 13.275 6C13.375 6 13.4625 6.00625 13.5375 6.01875C13.6125 6.03125 13.7 6.0375 13.8 6.0375C13.7 5.7875 13.625 5.5375 13.575 5.2875C13.525 5.0375 13.5 4.775 13.5 4.5C13.5 3.25 13.9375 2.1875 14.8125 1.3125C15.6875 0.4375 16.75 0 18 0C19.25 0 20.3125 0.4375 21.1875 1.3125C22.0625 2.1875 22.5 3.25 22.5 4.5C22.5 4.775 22.475 5.03125 22.425 5.26875C22.375 5.50625 22.3 5.75 22.2 6C22.3 6 22.3875 6 22.4625 6C22.5375 6 22.625 6 22.725 6C24.225 6 25.5 6.48125 26.55 7.44375C27.6 8.40625 28.225 9.6 28.425 11.025C27.975 10.95 27.4688 10.9125 26.9062 10.9125C26.3438 10.9125 25.825 10.9375 25.35 10.9875C25.175 10.4125 24.8562 9.9375 24.3937 9.5625C23.9312 9.1875 23.375 9 22.725 9C21.85 9 21.1687 9.25625 20.6812 9.76875C20.1938 10.2812 19.525 11.025 18.675 12H17.2875C16.4125 10.975 15.7312 10.2188 15.2437 9.73125C14.7562 9.24375 14.1 9 13.275 9C12.475 9 11.8125 9.2625 11.2875 9.7875C10.7625 10.3125 10.5 10.975 10.5 11.775C10.5 12.35 10.6625 12.9437 10.9875 13.5562C11.3125 14.1687 11.7688 14.8188 12.3562 15.5063C12.9437 16.1938 13.6562 16.925 14.4937 17.7C15.3312 18.475 16.2625 19.3125 17.2875 20.2125L15.15 22.35ZM18 6C18.425 6 18.7812 5.85625 19.0688 5.56875C19.3563 5.28125 19.5 4.925 19.5 4.5C19.5 4.075 19.3563 3.71875 19.0688 3.43125C18.7812 3.14375 18.425 3 18 3C17.575 3 17.2188 3.14375 16.9312 3.43125C16.6437 3.71875 16.5 4.075 16.5 4.5C16.5 4.925 16.6437 5.28125 16.9312 5.56875C17.2188 5.85625 17.575 6 18 6ZM22.8375 33C22.2875 33 21.7437 32.925 21.2062 32.775C20.6687 32.625 20.15 32.3875 19.65 32.0625C19.925 31.7125 20.2 31.3 20.475 30.825C20.75 30.35 21 29.9125 21.225 29.5125C21.5 29.6875 21.775 29.8125 22.05 29.8875C22.325 29.9625 22.6 30 22.875 30C23.675 30 24.3438 29.7188 24.8813 29.1562C25.4188 28.5938 25.6875 27.925 25.6875 27.15C25.6875 26.675 25.5875 26.1625 25.3875 25.6125C25.1875 25.0625 24.95 24.3875 24.675 23.5875L25.3875 22.3875C26.4375 22.1875 27.5312 21.925 28.6688 21.6C29.8063 21.275 30.375 20.4125 30.375 19.0125C30.375 18.0125 30.0062 17.2875 29.2687 16.8375C28.5312 16.3875 27.725 16.1625 26.85 16.1625C25.8 16.1625 24.575 16.3625 23.175 16.7625C21.775 17.1625 20.1375 17.675 18.2625 18.3L17.475 15.375C19.425 14.75 21.1625 14.225 22.6875 13.8C24.2125 13.375 25.6125 13.1625 26.8875 13.1625C28.6125 13.1625 30.125 13.675 31.425 14.7C32.725 15.725 33.375 17.1625 33.375 19.0125C33.375 19.6375 33.2812 20.2313 33.0938 20.7938C32.9062 21.3563 32.6375 21.8875 32.2875 22.3875C33.3625 22.5125 34.25 23.0063 34.95 23.8687C35.65 24.7312 36 25.7 36 26.775C36 28.025 35.5687 29.0875 34.7062 29.9625C33.8438 30.8375 32.775 31.275 31.5 31.275C30.85 31.275 30.2188 31.1313 29.6063 30.8438C28.9938 30.5562 28.4875 30.15 28.0875 29.625C27.5875 30.675 26.8813 31.5 25.9688 32.1C25.0562 32.7 24.0125 33 22.8375 33ZM31.5375 28.275C31.9625 28.275 32.3125 28.1313 32.5875 27.8438C32.8625 27.5562 33 27.2 33 26.775C33 26.35 32.8562 25.9875 32.5687 25.6875C32.2812 25.3875 31.925 25.2375 31.5 25.2375C31.075 25.2375 30.7188 25.3813 30.4312 25.6688C30.1437 25.9563 30 26.3125 30 26.7375C30 27.1625 30.15 27.525 30.45 27.825C30.75 28.125 31.1125 28.275 31.5375 28.275Z" fill="#00694C"/>
</svg>
