<svg width="24" height="30" viewBox="0 0 24 30" fill="none" xmlns="http://www.w3.org/2000/svg">
<path d="M7.5 29.25C5.425 29.25 3.65625 28.5187 2.19375 27.0562C0.73125 25.5938 0 23.825 0 21.75C0 19.675 0.73125 17.9062 2.19375 16.4438C3.65625 14.9813 5.425 14.25 7.5 14.25V17.25C6.25 17.25 5.1875 17.6875 4.3125 18.5625C3.4375 19.4375 3 20.5 3 21.75C3 23 3.4375 24.0625 4.3125 24.9375C5.1875 25.8125 6.25 26.25 7.5 26.25C8.75 26.25 9.8125 25.8125 10.6875 24.9375C11.5625 24.0625 12 23 12 21.75H15C15 23.825 14.2687 25.5938 12.8062 27.0562C11.3438 28.5187 9.575 29.25 7.5 29.25ZM21 27.75V20.25H12C10.9 20.25 10.05 19.7812 9.45 18.8438C8.85 17.9062 8.775 16.925 9.225 15.9L12 9.75H8.5875L7.6875 12.075L4.8 11.25L5.85 8.55C6.075 7.975 6.44375 7.53125 6.95625 7.21875C7.46875 6.90625 8.025 6.75 8.625 6.75H16.425C17.55 6.75 18.4062 7.20625 18.9937 8.11875C19.5812 9.03125 19.65 10 19.2 11.025L16.725 16.5H21C21.825 16.5 22.5312 16.7938 23.1187 17.3813C23.7062 17.9688 24 18.675 24 19.5V27.75H21ZM19.5 6C18.675 6 17.9688 5.70625 17.3813 5.11875C16.7938 4.53125 16.5 3.825 16.5 3C16.5 2.175 16.7938 1.46875 17.3813 0.88125C17.9688 0.29375 18.675 0 19.5 0C20.325 0 21.0312 0.29375 21.6187 0.88125C22.2062 1.46875 22.5 2.175 22.5 3C22.5 3.825 22.2062 4.53125 21.6187 5.11875C21.0312 5.70625 20.325 6 19.5 6Z" fill="#00694C"/>
</svg>
