<svg width="36" height="18" viewBox="0 0 36 18" fill="none" xmlns="http://www.w3.org/2000/svg">
<path d="M6 11.2875L9.7875 7.5L6 3.7125L2.2125 7.5L6 11.2875ZM26.25 10.5L30 4.5L33.75 10.5H26.25ZM18 9C16.75 9 15.6875 8.5625 14.8125 7.6875C13.9375 6.8125 13.5 5.75 13.5 4.5C13.5 3.225 13.9375 2.15625 14.8125 1.29375C15.6875 0.43125 16.75 0 18 0C19.275 0 20.3438 0.43125 21.2062 1.29375C22.0687 2.15625 22.5 3.225 22.5 4.5C22.5 5.75 22.0687 6.8125 21.2062 7.6875C20.3438 8.5625 19.275 9 18 9ZM18 3C17.575 3 17.2188 3.14375 16.9312 3.43125C16.6437 3.71875 16.5 4.075 16.5 4.5C16.5 4.925 16.6437 5.28125 16.9312 5.56875C17.2188 5.85625 17.575 6 18 6C18.425 6 18.7812 5.85625 19.0688 5.56875C19.3563 5.28125 19.5 4.925 19.5 4.5C19.5 4.075 19.3563 3.71875 19.0688 3.43125C18.7812 3.14375 18.425 3 18 3ZM0 18V15.6375C0 14.5375 0.55625 13.6562 1.66875 12.9937C2.78125 12.3312 4.225 12 6 12C6.325 12 6.6375 12.0063 6.9375 12.0188C7.2375 12.0312 7.525 12.0625 7.8 12.1125C7.45 12.6125 7.1875 13.15 7.0125 13.725C6.8375 14.3 6.75 14.9125 6.75 15.5625V18H0ZM9 18V15.5625C9 13.9375 9.83125 12.625 11.4937 11.625C13.1562 10.625 15.325 10.125 18 10.125C20.7 10.125 22.875 10.625 24.525 11.625C26.175 12.625 27 13.9375 27 15.5625V18H9ZM30 12C31.8 12 33.25 12.3312 34.35 12.9937C35.45 13.6562 36 14.5375 36 15.6375V18H29.25V15.5625C29.25 14.9125 29.1688 14.3 29.0063 13.725C28.8438 13.15 28.6 12.6125 28.275 12.1125C28.55 12.0625 28.8312 12.0312 29.1187 12.0188C29.4062 12.0063 29.7 12 30 12ZM18 13.125C16.575 13.125 15.3 13.3125 14.175 13.6875C13.05 14.0625 12.3875 14.5 12.1875 15H23.85C23.625 14.5 22.9562 14.0625 21.8438 13.6875C20.7313 13.3125 19.45 13.125 18 13.125Z" fill="#00694C"/>
</svg>
