<svg width="27" height="27" viewBox="0 0 27 27" fill="none" xmlns="http://www.w3.org/2000/svg">
<path d="M10.125 27C8.85 27 7.75 26.5563 6.825 25.6688C5.9 24.7812 5.375 23.7125 5.25 22.4625C3.75 22.2625 2.5 21.6 1.5 20.475C0.5 19.35 0 18.025 0 16.5C0 15.975 0.06875 15.4563 0.20625 14.9438C0.34375 14.4313 0.55 13.95 0.825 13.5C0.55 13.05 0.34375 12.575 0.20625 12.075C0.06875 11.575 0 11.05 0 10.5C0 8.975 0.5 7.65625 1.5 6.54375C2.5 5.43125 3.7375 4.775 5.2125 4.575C5.2875 3.3 5.8 2.21875 6.75 1.33125C7.7 0.44375 8.825 0 10.125 0C10.775 0 11.3813 0.125 11.9438 0.375C12.5063 0.625 13.025 0.9625 13.5 1.3875C13.95 0.9625 14.4625 0.625 15.0375 0.375C15.6125 0.125 16.225 0 16.875 0C18.175 0 19.2938 0.4375 20.2313 1.3125C21.1688 2.1875 21.675 3.2625 21.75 4.5375C23.225 4.7375 24.4688 5.4 25.4813 6.525C26.4938 7.65 27 8.975 27 10.5C27 11.05 26.9313 11.575 26.7938 12.075C26.6562 12.575 26.45 13.05 26.175 13.5C26.45 13.95 26.6562 14.4313 26.7938 14.9438C26.9313 15.4563 27 15.975 27 16.5C27 18.05 26.4938 19.3813 25.4813 20.4937C24.4688 21.6062 23.2125 22.2625 21.7125 22.4625C21.5875 23.7125 21.0688 24.7812 20.1562 25.6688C19.2437 26.5563 18.15 27 16.875 27C16.25 27 15.6437 26.8812 15.0562 26.6437C14.4688 26.4062 13.95 26.075 13.5 25.65C13.025 26.075 12.5 26.4062 11.925 26.6437C11.35 26.8812 10.75 27 10.125 27ZM15 4.875V22.125C15 22.65 15.1812 23.0938 15.5437 23.4562C15.9062 23.8187 16.35 24 16.875 24C17.375 24 17.8063 23.8 18.1688 23.4C18.5312 23 18.725 22.55 18.75 22.05C18.225 21.85 17.7437 21.5812 17.3062 21.2437C16.8687 20.9062 16.475 20.5 16.125 20.025C15.875 19.675 15.7812 19.3 15.8438 18.9C15.9062 18.5 16.1125 18.175 16.4625 17.925C16.8125 17.675 17.1875 17.5812 17.5875 17.6437C17.9875 17.7062 18.3125 17.9125 18.5625 18.2625C18.8375 18.6625 19.1875 18.9688 19.6125 19.1812C20.0375 19.3937 20.5 19.5 21 19.5C21.825 19.5 22.5312 19.2062 23.1187 18.6187C23.7062 18.0312 24 17.325 24 16.5C24 16.375 23.9938 16.25 23.9813 16.125C23.9688 16 23.9375 15.875 23.8875 15.75C23.4625 16 23.0062 16.1875 22.5187 16.3125C22.0312 16.4375 21.525 16.5 21 16.5C20.575 16.5 20.2188 16.3563 19.9312 16.0688C19.6437 15.7812 19.5 15.425 19.5 15C19.5 14.575 19.6437 14.2188 19.9312 13.9312C20.2188 13.6437 20.575 13.5 21 13.5C21.825 13.5 22.5312 13.2062 23.1187 12.6187C23.7062 12.0312 24 11.325 24 10.5C24 9.675 23.7062 8.975 23.1187 8.4C22.5312 7.825 21.825 7.525 21 7.5C20.725 7.95 20.3687 8.34375 19.9312 8.68125C19.4937 9.01875 19.0125 9.2875 18.4875 9.4875C18.0875 9.6375 17.7 9.625 17.325 9.45C16.95 9.275 16.7 8.9875 16.575 8.5875C16.45 8.1875 16.4688 7.8 16.6313 7.425C16.7938 7.05 17.075 6.8 17.475 6.675C17.85 6.55 18.1562 6.325 18.3937 6C18.6312 5.675 18.75 5.3 18.75 4.875C18.75 4.35 18.5687 3.90625 18.2062 3.54375C17.8438 3.18125 17.4 3 16.875 3C16.35 3 15.9062 3.18125 15.5437 3.54375C15.1812 3.90625 15 4.35 15 4.875ZM12 22.125V4.875C12 4.35 11.8188 3.90625 11.4563 3.54375C11.0938 3.18125 10.65 3 10.125 3C9.6 3 9.15625 3.18125 8.79375 3.54375C8.43125 3.90625 8.25 4.35 8.25 4.875C8.25 5.275 8.3625 5.64375 8.5875 5.98125C8.8125 6.31875 9.1125 6.55 9.4875 6.675C9.8875 6.8 10.175 7.05 10.35 7.425C10.525 7.8 10.55 8.1875 10.425 8.5875C10.275 8.9875 10.0125 9.275 9.6375 9.45C9.2625 9.625 8.875 9.6375 8.475 9.4875C7.95 9.2875 7.46875 9.01875 7.03125 8.68125C6.59375 8.34375 6.2375 7.95 5.9625 7.5C5.1625 7.525 4.46875 7.83125 3.88125 8.41875C3.29375 9.00625 3 9.7 3 10.5C3 11.325 3.29375 12.0312 3.88125 12.6187C4.46875 13.2062 5.175 13.5 6 13.5C6.425 13.5 6.78125 13.6437 7.06875 13.9312C7.35625 14.2188 7.5 14.575 7.5 15C7.5 15.425 7.35625 15.7812 7.06875 16.0688C6.78125 16.3563 6.425 16.5 6 16.5C5.475 16.5 4.96875 16.4375 4.48125 16.3125C3.99375 16.1875 3.5375 16 3.1125 15.75C3.0625 15.875 3.03125 16 3.01875 16.125C3.00625 16.25 3 16.375 3 16.5C3 17.325 3.29375 18.0312 3.88125 18.6187C4.46875 19.2062 5.175 19.5 6 19.5C6.5 19.5 6.9625 19.3937 7.3875 19.1812C7.8125 18.9688 8.1625 18.6625 8.4375 18.2625C8.6875 17.9125 9.0125 17.7062 9.4125 17.6437C9.8125 17.5812 10.1875 17.675 10.5375 17.925C10.8875 18.175 11.0938 18.5 11.1562 18.9C11.2188 19.3 11.125 19.675 10.875 20.025C10.525 20.5 10.125 20.9125 9.675 21.2625C9.225 21.6125 8.7375 21.8875 8.2125 22.0875C8.2375 22.5875 8.4375 23.0312 8.8125 23.4188C9.1875 23.8063 9.625 24 10.125 24C10.65 24 11.0938 23.8187 11.4563 23.4562C11.8188 23.0938 12 22.65 12 22.125Z" fill="#00694C"/>
</svg>
