<svg width="26" height="30" viewBox="0 0 26 30" fill="none" xmlns="http://www.w3.org/2000/svg">
<path d="M13.5 30L13.125 25.5H12.75C9.2 25.5 6.1875 24.2625 3.7125 21.7875C1.2375 19.3125 0 16.3 0 12.75C0 9.2 1.2375 6.1875 3.7125 3.7125C6.1875 1.2375 9.2 0 12.75 0C14.525 0 16.1812 0.33125 17.7188 0.99375C19.2563 1.65625 20.6062 2.56875 21.7687 3.73125C22.9312 4.89375 23.8438 6.24375 24.5063 7.78125C25.1688 9.31875 25.5 10.975 25.5 12.75C25.5 14.625 25.1937 16.425 24.5812 18.15C23.9688 19.875 23.1313 21.475 22.0688 22.95C21.0063 24.425 19.7437 25.7625 18.2812 26.9625C16.8188 28.1625 15.225 29.175 13.5 30ZM16.5 24.525C18.275 23.025 19.7188 21.2688 20.8312 19.2563C21.9437 17.2437 22.5 15.075 22.5 12.75C22.5 10.025 21.5563 7.71875 19.6688 5.83125C17.7812 3.94375 15.475 3 12.75 3C10.025 3 7.71875 3.94375 5.83125 5.83125C3.94375 7.71875 3 10.025 3 12.75C3 15.475 3.94375 17.7812 5.83125 19.6688C7.71875 21.5563 10.025 22.5 12.75 22.5H16.5V24.525ZM12.7125 20.9625C13.1375 20.9625 13.5 20.8125 13.8 20.5125C14.1 20.2125 14.25 19.85 14.25 19.425C14.25 19 14.1 18.6375 13.8 18.3375C13.5 18.0375 13.1375 17.8875 12.7125 17.8875C12.2875 17.8875 11.925 18.0375 11.625 18.3375C11.325 18.6375 11.175 19 11.175 19.425C11.175 19.85 11.325 20.2125 11.625 20.5125C11.925 20.8125 12.2875 20.9625 12.7125 20.9625ZM11.625 16.2H13.875C13.875 15.45 13.95 14.925 14.1 14.625C14.25 14.325 14.725 13.775 15.525 12.975C15.975 12.525 16.35 12.0375 16.65 11.5125C16.95 10.9875 17.1 10.425 17.1 9.825C17.1 8.55 16.6687 7.59375 15.8062 6.95625C14.9437 6.31875 13.925 6 12.75 6C11.65 6 10.725 6.30625 9.975 6.91875C9.225 7.53125 8.7 8.275 8.4 9.15L10.5 9.975C10.625 9.55 10.8625 9.13125 11.2125 8.71875C11.5625 8.30625 12.075 8.1 12.75 8.1C13.425 8.1 13.9313 8.2875 14.2688 8.6625C14.6062 9.0375 14.775 9.45 14.775 9.9C14.775 10.325 14.65 10.7063 14.4 11.0437C14.15 11.3812 13.85 11.725 13.5 12.075C12.625 12.825 12.0938 13.4187 11.9062 13.8562C11.7188 14.2937 11.625 15.075 11.625 16.2Z" fill="#00694C"/>
</svg>
