<svg width="33" height="30" viewBox="0 0 33 30" fill="none" xmlns="http://www.w3.org/2000/svg">
<path d="M22.65 15.75L20.475 13.575C20.7 12.4 20.3625 11.3 19.4625 10.275C18.5625 9.25 17.4 8.85 15.975 9.075L13.8 6.9C14.225 6.7 14.6562 6.55 15.0938 6.45C15.5312 6.35 16 6.3 16.5 6.3C18.375 6.3 19.9688 6.95625 21.2812 8.26875C22.5938 9.58125 23.25 11.175 23.25 13.05C23.25 13.55 23.2 14.0188 23.1 14.4563C23 14.8938 22.85 15.325 22.65 15.75ZM27.45 20.475L25.275 18.375C26.225 17.65 27.0688 16.8562 27.8062 15.9937C28.5437 15.1312 29.175 14.15 29.7 13.05C28.45 10.525 26.6562 8.51875 24.3188 7.03125C21.9813 5.54375 19.375 4.8 16.5 4.8C15.775 4.8 15.0625 4.85 14.3625 4.95C13.6625 5.05 12.975 5.2 12.3 5.4L9.975 3.075C11 2.65 12.05 2.33125 13.125 2.11875C14.2 1.90625 15.325 1.8 16.5 1.8C20.275 1.8 23.6375 2.84375 26.5875 4.93125C29.5375 7.01875 31.675 9.725 33 13.05C32.425 14.525 31.6688 15.8938 30.7313 17.1562C29.7938 18.4188 28.7 19.525 27.45 20.475ZM28.2 29.7L21.9 23.475C21.025 23.75 20.1438 23.9562 19.2563 24.0938C18.3687 24.2313 17.45 24.3 16.5 24.3C12.725 24.3 9.3625 23.2563 6.4125 21.1688C3.4625 19.0813 1.325 16.375 0 13.05C0.525 11.725 1.1875 10.4937 1.9875 9.35625C2.7875 8.21875 3.7 7.2 4.725 6.3L0.6 2.1L2.7 0L30.3 27.6L28.2 29.7ZM6.825 8.4C6.1 9.05 5.4375 9.7625 4.8375 10.5375C4.2375 11.3125 3.725 12.15 3.3 13.05C4.55 15.575 6.34375 17.5813 8.68125 19.0688C11.0187 20.5562 13.625 21.3 16.5 21.3C17 21.3 17.4875 21.2687 17.9625 21.2062C18.4375 21.1437 18.925 21.075 19.425 21L18.075 19.575C17.8 19.65 17.5375 19.7062 17.2875 19.7437C17.0375 19.7812 16.775 19.8 16.5 19.8C14.625 19.8 13.0312 19.1437 11.7188 17.8312C10.4062 16.5187 9.75 14.925 9.75 13.05C9.75 12.775 9.76875 12.5125 9.80625 12.2625C9.84375 12.0125 9.9 11.75 9.975 11.475L6.825 8.4Z" fill="#00694C"/>
</svg>
